<svg width="199" height="100" viewBox="0 0 199 100" fill="none" xmlns="http://www.w3.org/2000/svg">
<path d="M180 0C191.046 0 200.202 9.04235 197.997 19.8657C196.717 26.1512 194.828 32.3147 192.35 38.2683C187.299 50.4009 179.897 61.4248 170.564 70.7107C161.232 79.9965 150.153 87.3625 137.96 92.388C125.766 97.4134 112.698 100 99.5 100C86.3021 100 73.2335 97.4134 61.0403 92.388C48.8471 87.3625 37.7681 79.9965 28.4358 70.7107C19.1035 61.4248 11.7007 50.4009 6.6501 38.2683C4.17167 32.3146 2.28348 26.1512 1.00307 19.8657C-1.20178 9.04234 7.95431 -7.96336e-06 19 -7.00252e-06L99.5 0H180Z" fill="#F88B0C"/>
</svg>
