<svg width="262" height="135" viewBox="0 0 262 135" fill="none" xmlns="http://www.w3.org/2000/svg">
<path d="M243 0.0465088C254.046 0.0465088 263.151 9.04814 261.533 19.9747C259.942 30.722 257.066 41.2575 252.952 51.3439C246.318 67.6072 236.595 82.3843 224.338 94.8317C212.081 107.279 197.529 117.153 181.514 123.889C165.499 130.626 148.334 134.093 131 134.093C113.666 134.093 96.5008 130.626 80.4858 123.889C64.4708 117.153 49.9192 107.279 37.6619 94.8317C25.4046 82.3843 15.6815 67.6071 9.0479 51.3439C4.93375 41.2575 2.05791 30.7219 0.466861 19.9747C-1.15074 9.04812 7.95431 0.0464979 19 0.0464988L131 0.0465088H243Z" fill="#F88B0C"/>
</svg>
